<mxfile host="65bd71144e">
    <diagram id="UwXFu76H6yd2D5lKtUYV" name="Page-1">
        <mxGraphModel dx="1315" dy="634" grid="1" gridSize="10" guides="1" tooltips="1" connect="1" arrows="1" fold="1" page="1" pageScale="1" pageWidth="850" pageHeight="1100" math="0" shadow="0">
            <root>
                <mxCell id="0"/>
                <mxCell id="1" parent="0"/>
                <mxCell id="4" value="foo3.txt" style="html=1;verticalLabelPosition=bottom;align=center;labelBackgroundColor=none;verticalAlign=top;strokeWidth=2;strokeColor=#0080F0;shadow=0;dashed=0;shape=mxgraph.ios7.icons.document;fillColor=none;fontColor=#000000;" parent="1" vertex="1">
                    <mxGeometry x="340" y="350" width="21" height="30" as="geometry"/>
                </mxCell>
                <mxCell id="8" value="Modified Files" style="text;html=1;strokeColor=none;fillColor=none;align=center;verticalAlign=middle;whiteSpace=wrap;rounded=0;labelBackgroundColor=none;fontSize=20;fontColor=#000000;" parent="1" vertex="1">
                    <mxGeometry x="30" y="350" width="150" height="40" as="geometry"/>
                </mxCell>
                <mxCell id="10" value="Stage" style="text;html=1;strokeColor=none;fillColor=none;align=center;verticalAlign=middle;whiteSpace=wrap;rounded=0;labelBackgroundColor=none;fontSize=20;fontColor=#000000;" parent="1" vertex="1">
                    <mxGeometry x="30" y="240" width="150" height="40" as="geometry"/>
                </mxCell>
                <mxCell id="11" value="foo1.txt" style="html=1;verticalLabelPosition=bottom;align=center;labelBackgroundColor=none;verticalAlign=top;strokeWidth=2;strokeColor=#0080F0;shadow=0;dashed=0;shape=mxgraph.ios7.icons.document;fillColor=none;fontColor=#000000;" parent="1" vertex="1">
                    <mxGeometry x="220" y="245" width="21" height="30" as="geometry"/>
                </mxCell>
                <mxCell id="13" value="" style="shape=flexArrow;endArrow=classic;html=1;fontSize=20;strokeColor=#000000;strokeWidth=2;" parent="1" edge="1">
                    <mxGeometry width="50" height="50" relative="1" as="geometry">
                        <mxPoint x="260" y="340" as="sourcePoint"/>
                        <mxPoint x="260" y="310" as="targetPoint"/>
                    </mxGeometry>
                </mxCell>
                <mxCell id="14" value="" style="shape=flexArrow;endArrow=classic;html=1;fontSize=20;strokeWidth=2;strokeColor=#000000;" parent="1" edge="1">
                    <mxGeometry width="50" height="50" relative="1" as="geometry">
                        <mxPoint x="390" y="259.5" as="sourcePoint"/>
                        <mxPoint x="520" y="259.5" as="targetPoint"/>
                    </mxGeometry>
                </mxCell>
                <mxCell id="15" value="Commit" style="text;html=1;strokeColor=none;fillColor=none;align=center;verticalAlign=middle;whiteSpace=wrap;rounded=0;labelBackgroundColor=none;fontSize=20;fontColor=#000000;" parent="1" vertex="1">
                    <mxGeometry x="370" y="205" width="150" height="40" as="geometry"/>
                </mxCell>
                <mxCell id="16" value="foo1.txt" style="html=1;verticalLabelPosition=bottom;align=center;labelBackgroundColor=none;verticalAlign=top;strokeWidth=2;strokeColor=#0080F0;shadow=0;dashed=0;shape=mxgraph.ios7.icons.document;fillColor=none;fontColor=#000000;" parent="1" vertex="1">
                    <mxGeometry x="600" y="240" width="21" height="30" as="geometry"/>
                </mxCell>
                <mxCell id="17" value="foo2.txt" style="html=1;verticalLabelPosition=bottom;align=center;labelBackgroundColor=none;verticalAlign=top;strokeWidth=2;strokeColor=#0080F0;shadow=0;dashed=0;shape=mxgraph.ios7.icons.document;fillColor=none;fontColor=#000000;" parent="1" vertex="1">
                    <mxGeometry x="660" y="240" width="21" height="30" as="geometry"/>
                </mxCell>
                <mxCell id="18" value="" style="rounded=1;whiteSpace=wrap;html=1;fontSize=16;strokeColor=#999999;dashed=1;fillColor=none;" parent="1" vertex="1">
                    <mxGeometry x="540" y="207.5" width="200" height="105" as="geometry"/>
                </mxCell>
                <mxCell id="19" value="&quot;hogehoge&quot;" style="text;html=1;strokeColor=none;fillColor=none;align=center;verticalAlign=middle;whiteSpace=wrap;rounded=0;labelBackgroundColor=none;fontSize=20;fontColor=#000000;" parent="1" vertex="1">
                    <mxGeometry x="560" y="340" width="160" height="30" as="geometry"/>
                </mxCell>
                <mxCell id="27" value="foo1.txt" style="html=1;verticalLabelPosition=bottom;align=center;labelBackgroundColor=none;verticalAlign=top;strokeWidth=2;strokeColor=#0080F0;shadow=0;dashed=0;shape=mxgraph.ios7.icons.document;fillColor=none;fontColor=#000000;" parent="1" vertex="1">
                    <mxGeometry x="220" y="350" width="21" height="30" as="geometry"/>
                </mxCell>
                <mxCell id="28" value="foo2.txt" style="html=1;verticalLabelPosition=bottom;align=center;labelBackgroundColor=none;verticalAlign=top;strokeWidth=2;shadow=0;dashed=0;shape=mxgraph.ios7.icons.document;fillColor=none;fontColor=#000000;strokeColor=#0080F0;" parent="1" vertex="1">
                    <mxGeometry x="280" y="350" width="21" height="30" as="geometry"/>
                </mxCell>
                <mxCell id="31" value="foo2.txt" style="html=1;verticalLabelPosition=bottom;align=center;labelBackgroundColor=none;verticalAlign=top;strokeWidth=2;shadow=0;dashed=0;shape=mxgraph.ios7.icons.document;fontColor=#000000;fillColor=none;strokeColor=#0080F0;" parent="1" vertex="1">
                    <mxGeometry x="280" y="245" width="21" height="30" as="geometry"/>
                </mxCell>
            </root>
        </mxGraphModel>
    </diagram>
</mxfile>